<svg width="240" height="180" xmlns="http://www.w3.org/2000/svg" class="el-tooltip" preserveAspectRatio="xMidYMid meet">

  <g>
    <title>background</title>
    <rect fill="none" id="canvas_background" height="182" width="242" y="-1" x="-1" />
  </g>
  <g>
    <title>Layer 1</title>
    <g stroke="null" id="svg_3" class="newinitialsvg-g newinitialsvg" fill="#00a480">
      <g stroke="null" id="svg_4" class="tp-name">
        <g stroke="null" id="svg_5">
          <g stroke="null" id="svg_6" fill="#00a480">
            <path stroke="null" id="svg_7"
              d="m13.00648,102.89303q-2.90926,0 -4.8087,-1.68304q-1.89944,-1.68304 -1.89944,-4.8087l0,0l0,-41.76353q0,-3.1497 1.89944,-4.76061q1.89944,-1.61091 4.8087,-1.61091l0,0q2.9333,0 4.88083,1.61091q1.94752,1.61091 1.94752,4.76061l0,0l0,41.76353q0,3.12565 -1.94752,4.8087q-1.94752,1.68304 -4.88083,1.68304l0,0zm0,-64.26823q-3.67865,0 -5.84257,-1.99561q-2.16391,-2.01965 -2.16391,-5.24148l0,0q0,-3.24587 2.16391,-5.19339q2.16391,-1.97157 5.84257,-1.97157l0,0q3.58248,0 5.79448,1.97157q2.212,1.94752 2.212,5.19339l0,0q0,3.22183 -2.16391,5.24148q-2.13987,1.99561 -5.84257,1.99561l0,0z" />
          </g>
        </g>
        <g stroke="null" id="svg_8">
          <g stroke="null" id="svg_9" fill="#00a480">
            <path stroke="null" id="svg_10"
              d="m74.4496,90.99151q6.49174,0 6.49174,5.53l0,0q0,5.72235 -6.49174,5.72235l0,0l-36.57014,0q-6.58791,0 -6.58791,-5.72235l0,0q0,-5.53 6.58791,-5.53l0,0l11.25235,0l0,-49.33722l-10.38678,6.39557q-1.51474,0.86557 -2.69287,0.86557l0,0q-2.26009,0 -3.84696,-1.94752q-1.56283,-1.94752 -1.56283,-4.32783l0,0q0,-3.1497 2.81309,-4.88083l0,0l16.75831,-10.38678q3.24587,-1.94752 6.17917,-1.94752l0,0q3.02948,0 4.85678,1.85135q1.85135,1.8273 1.85135,5.07317l0,0l0,58.64205l11.34852,0z" />
          </g>
        </g>
        <g stroke="null" id="svg_11">
          <polyline stroke="#00a480" id="svg_12"
            points="90.5707321476084,17.021740674972534 90.5707321476084,5 162.12414695314692,5 162.12414695314692,17.021740674972534 "
            stroke-linejoin="round" fill-opacity="0" stroke-width="2" />
          <polyline stroke="#00a480" id="svg_13"
            points="90.5707321476084,107.9181409959092 90.5707321476084,119.93988167088173 162.12414695314692,119.93988167088173 162.12414695314692,107.9181409959092 "
            stroke-linejoin="round" fill-opacity="0" stroke-width="2" />
          <g stroke="null" id="svg_14" fill="#00a480">
            <path stroke="null" id="svg_15"
              d="m140.94184,63.07703q6.70813,1.85135 10.3387,6.70813q3.63057,4.88083 3.63057,11.90152l0,0q0,10.05018 -7.5737,15.74848q-7.5737,5.67426 -20.98996,5.67426l0,0q-13.41626,0 -20.98996,-5.67426q-7.5737,-5.69831 -7.5737,-15.74848l0,0q0,-7.0207 3.67865,-11.94961q3.67865,-4.92891 10.38678,-6.66004l0,0q-5.74639,-2.16391 -8.99226,-6.75622q-3.24587,-4.61635 -3.24587,-10.77148l0,0q0,-9.52122 7.14091,-15.02718q7.14091,-5.53 19.59544,-5.53l0,0q12.45452,0 19.57139,5.53q7.14091,5.50596 7.14091,15.02718l0,0q0,6.27535 -3.22183,10.91574q-3.26991,4.66444 -8.89609,6.61196l0,0zm-14.59439,-27.14509q-13.51244,0 -13.51244,11.03596l0,0q0,5.50596 3.39013,8.36713q3.41417,2.88522 10.12231,2.88522l0,0q6.70813,0 10.12231,-2.88522q3.41417,-2.86117 3.41417,-8.36713l0,0q0,-11.03596 -13.53648,-11.03596l0,0zm0,56.26175q15.45996,0 15.45996,-11.58896l0,0q0,-11.56491 -15.45996,-11.56491l0,0q-15.484,0 -15.484,11.56491l0,0q0,11.58896 15.484,11.58896l0,0z" />
          </g>
        </g>
        <g stroke="null" id="svg_16">
          <g stroke="null" id="svg_17" fill="#00a480">
            <path stroke="null" id="svg_18"
              d="m229.51803,25.42494q3.02948,0 4.8087,1.89944q1.80326,1.87539 1.80326,5.02509l0,0l0,63.52288q0,3.12565 -1.85135,5.07317q-1.85135,1.94752 -4.76061,1.94752l0,0q-3.46226,0 -5.31361,-2.50052l0,0l-39.4794,-51.38092l0,46.86075q0,3.12565 -1.73113,5.07317q-1.73113,1.94752 -4.76061,1.94752l0,0q-3.02948,0 -4.76061,-1.94752q-1.73113,-1.94752 -1.73113,-5.07317l0,0l0,-63.52288q0,-3.1497 1.8273,-5.02509q1.85135,-1.89944 4.88083,-1.89944l0,0q3.34204,0 5.19339,2.50052l0,0l39.38322,51.16453l0,-46.74053q0,-3.1497 1.77922,-5.02509q1.77922,-1.89944 4.71252,-1.89944l0,0z" />
          </g>
        </g>
      </g>
      <g stroke="null" id="svg_19" fill="#00a480" class="tp-slogan">
        <g stroke="null" id="svg_20">
          <path stroke="null" id="svg_21"
            d="m86.94168,148.78753l5.84257,17.57578l5.98683,-17.57578l3.1497,0l-7.54965,20.62931l-3.02948,0l-7.5737,-20.62931l3.17374,0zm31.20844,12.95944l0,-12.95944l2.81309,0l0,13.29605q-0.33661,7.45348 -8.43926,7.66987l0,0q-7.54965,-0.21639 -7.88626,-7.21304l0,0l0,-13.75287l2.81309,0l0,12.95944q0.12022,5.65022 5.16935,5.74639l0,0q5.53,-0.09617 5.53,-5.74639l0,0zm10.26657,5.19339l12.38239,0l0,2.47648l-15.19548,0l0,-20.62931l14.97909,0l0,2.3803l-12.166,0l0,6.41961l11.25235,0l0,2.47648l-11.25235,0l0,6.87644zm20.26865,-6.87644l0,0l0,-2.13987q0.69726,0 1.37048,0l0,0q3.7027,-0.12022 3.82291,-3.26991l0,0q-0.21639,-3.05352 -3.72674,-3.1497l0,0q-3.82291,0 -3.94313,4.27974l0,0l-2.47648,0q0.12022,-6.53983 6.53983,-6.66004l0,0q5.86661,0.24043 6.20322,5.31361l0,0q0,3.1497 -2.47648,4.27974l0,0l0,0.09617q3.36609,1.03387 3.36609,4.64039l0,0q-0.33661,6.083 -7.30922,6.29939l0,0q-2.3803,0 -3.72674,-0.67322l0,0q-2.9333,-1.34643 -3.05352,-5.86661l0,0l2.5967,0q0.12022,4.52017 4.27974,4.52017l0,0q4.18357,-0.24043 4.39996,-3.94313l0,0q0,-3.72674 -4.61635,-3.72674l0,0q-0.67322,0 -1.25026,0z" />
        </g>
      </g>
    </g>
  </g>
</svg>